<svg xmlns="http://www.w3.org/2000/svg" width="280.98" height="209.391" viewBox="0 0 280.98 209.391">
  <g id="Group_7678" data-name="Group 7678" transform="translate(0 -54.953)">
    <g id="Background_2" data-name="Background 2" transform="translate(0 54.953)">
      <g id="Group_7673" data-name="Group 7673">
        <g id="Group_7659" data-name="Group 7659">
          <g id="Group_7658" data-name="Group 7658">
            <g id="Group_7657" data-name="Group 7657">
              <rect id="Rectangle_17532" data-name="Rectangle 17532" width="280.98" height="0.14" transform="translate(0 184.012)" fill="#d1e3ff"/>
              <rect id="Rectangle_17533" data-name="Rectangle 17533" width="5.89" height="0.14" transform="translate(90.954 187.405)" fill="#d1e3ff"/>
              <rect id="Rectangle_17534" data-name="Rectangle 17534" width="21.32" height="0.14" transform="translate(240.659 191.093)" fill="#d1e3ff"/>
              <rect id="Rectangle_17535" data-name="Rectangle 17535" width="17.232" height="0.14" transform="translate(178.331 187.476)" fill="#d1e3ff"/>
              <rect id="Rectangle_17536" data-name="Rectangle 17536" width="29.986" height="0.14" transform="translate(106.273 190.679)" fill="#d1e3ff"/>
              <rect id="Rectangle_17537" data-name="Rectangle 17537" width="10.307" height="0.14" transform="translate(68.185 189.79)" fill="#d1e3ff"/>
              <rect id="Rectangle_17538" data-name="Rectangle 17538" width="8.574" height="0.14" transform="translate(229.373 191.093)" fill="#d1e3ff"/>
              <rect id="Rectangle_17539" data-name="Rectangle 17539" width="28.419" height="0.14" transform="translate(36.489 189.719)" fill="#d1e3ff"/>
              <path id="Path_13868" data-name="Path 13868" d="M149.929,213.9H41.415a3.212,3.212,0,0,1-3.208-3.208V58.16a3.211,3.211,0,0,1,3.208-3.207H149.929a3.211,3.211,0,0,1,3.207,3.207V210.694A3.211,3.211,0,0,1,149.929,213.9ZM41.415,55.093a3.07,3.07,0,0,0-3.067,3.067V210.694a3.07,3.07,0,0,0,3.067,3.067H149.929A3.071,3.071,0,0,0,153,210.694V58.16a3.07,3.07,0,0,0-3.067-3.067Z" transform="translate(-16.736 -54.953)" fill="#d1e3ff"/>
              <path id="Path_13869" data-name="Path 13869" d="M366.226,213.9H257.712a3.211,3.211,0,0,1-3.207-3.208V58.16a3.211,3.211,0,0,1,3.207-3.207H366.226a3.211,3.211,0,0,1,3.208,3.207V210.694A3.212,3.212,0,0,1,366.226,213.9ZM257.712,55.093a3.07,3.07,0,0,0-3.067,3.067V210.694a3.07,3.07,0,0,0,3.067,3.067H366.226a3.071,3.071,0,0,0,3.068-3.067V58.16a3.071,3.071,0,0,0-3.068-3.067Z" transform="translate(-111.483 -54.953)" fill="#d1e3ff"/>
            </g>
          </g>
        </g>
        <g id="Group_7672" data-name="Group 7672" transform="translate(41.648 19.658)">
          <g id="Group_7660" data-name="Group 7660" transform="translate(0 15.834)">
            <rect id="Rectangle_17540" data-name="Rectangle 17540" width="67.186" height="148.589" fill="#e3eeff"/>
            <rect id="Rectangle_17541" data-name="Rectangle 17541" width="64.001" height="148.589" transform="translate(3.184)" fill="#f3f8ff"/>
            <rect id="Rectangle_17542" data-name="Rectangle 17542" width="141.846" height="57.258" transform="translate(63.814 3.372) rotate(90)" fill="#e9f3ff"/>
            <rect id="Rectangle_17543" data-name="Rectangle 17543" width="141.846" height="0.874" transform="translate(63.814 3.372) rotate(90)" fill="#e3eeff"/>
            <circle id="Ellipse_281" data-name="Ellipse 281" cx="2.872" cy="2.872" r="2.872" transform="translate(53.295 65.281)" fill="#e3eeff"/>
            <circle id="Ellipse_282" data-name="Ellipse 282" cx="2.872" cy="2.872" r="2.872" transform="translate(54.419 64.688)" fill="#fff"/>
          </g>
          <g id="Group_7667" data-name="Group 7667" transform="translate(107.006 0.002)">
            <g id="Group_7663" data-name="Group 7663" transform="translate(56.082)">
              <g id="Group_7662" data-name="Group 7662">
                <g id="Group_7661" data-name="Group 7661">
                  <rect id="Rectangle_17544" data-name="Rectangle 17544" width="45.479" height="85.431" fill="#d1e3ff"/>
                  <rect id="Rectangle_17545" data-name="Rectangle 17545" width="45.479" height="85.431" transform="translate(1.942)" fill="#f3f8ff"/>
                  <rect id="Rectangle_17546" data-name="Rectangle 17546" width="77.912" height="38.507" transform="translate(43.935 3.759) rotate(90)" fill="#fff"/>
                  <rect id="Rectangle_17547" data-name="Rectangle 17547" width="77.912" height="1.468" transform="translate(43.935 3.759) rotate(90)" fill="#d1e3ff"/>
                  <rect id="Rectangle_17548" data-name="Rectangle 17548" width="42.595" height="5.047" transform="translate(3.384 59.11)" fill="#f3f8ff"/>
                </g>
              </g>
            </g>
            <g id="Group_7666" data-name="Group 7666">
              <g id="Group_7665" data-name="Group 7665">
                <g id="Group_7664" data-name="Group 7664">
                  <rect id="Rectangle_17549" data-name="Rectangle 17549" width="45.479" height="85.431" fill="#d1e3ff"/>
                  <rect id="Rectangle_17550" data-name="Rectangle 17550" width="45.479" height="85.431" transform="translate(1.942)" fill="#f3f8ff"/>
                  <rect id="Rectangle_17551" data-name="Rectangle 17551" width="77.912" height="38.507" transform="translate(43.935 3.759) rotate(90)" fill="#fff"/>
                  <rect id="Rectangle_17552" data-name="Rectangle 17552" width="77.912" height="1.468" transform="translate(43.935 3.759) rotate(90)" fill="#d1e3ff"/>
                  <rect id="Rectangle_17553" data-name="Rectangle 17553" width="42.595" height="5.047" transform="translate(3.384 59.11)" fill="#f3f8ff"/>
                </g>
              </g>
            </g>
          </g>
          <g id="Group_7668" data-name="Group 7668" transform="translate(22.385)">
            <path id="Path_13870" data-name="Path 13870" d="M139.545,99.23l-.514.516H113.944V89.935Z" transform="translate(-113.944 -89.935)" fill="#cadefc"/>
            <path id="Path_13871" data-name="Path 13871" d="M114.913,99.23h24.632l-.968-9.3H113.944Z" transform="translate(-113.944 -89.935)" fill="#f3f8ff"/>
          </g>
          <g id="Group_7669" data-name="Group 7669" transform="translate(73.361 78.676)">
            <rect id="Rectangle_17554" data-name="Rectangle 17554" width="10.622" height="10.622" transform="translate(10.982 10.622) rotate(180)" fill="#dce9ff"/>
            <rect id="Rectangle_17555" data-name="Rectangle 17555" width="0.36" height="10.622" transform="translate(0)" fill="#cadefc"/>
            <path id="Path_13872" data-name="Path 13872" d="M215.975,239.86l-.382.383h-7.9V232.96Z" transform="translate(-205.985 -231.262)" fill="#cadefc"/>
            <path id="Path_13873" data-name="Path 13873" d="M208.408,239.86h7.567l-.719-6.9H207.69Z" transform="translate(-205.985 -231.262)" fill="#fff"/>
          </g>
          <g id="Group_7671" data-name="Group 7671" transform="translate(88.893 98.399)">
            <g id="Group_7670" data-name="Group 7670">
              <path id="Path_13874" data-name="Path 13874" d="M232.294,269.853l5.335-4.819,5.335,4.819v61.276H232.294Z" transform="translate(-232.294 -265.034)" fill="#e9f3ff"/>
              <path id="Path_13875" data-name="Path 13875" d="M265.2,269.853l5.335-4.819,5.335,4.819v61.276H265.2Z" transform="translate(-246.708 -265.034)" fill="#e9f3ff"/>
              <path id="Path_13876" data-name="Path 13876" d="M298.1,269.853l5.335-4.819,5.335,4.819v61.276H298.1Z" transform="translate(-261.121 -265.034)" fill="#e9f3ff"/>
              <path id="Path_13877" data-name="Path 13877" d="M331.008,269.853l5.335-4.819,5.335,4.819v61.276H331.008Z" transform="translate(-275.535 -265.034)" fill="#e9f3ff"/>
              <path id="Path_13878" data-name="Path 13878" d="M363.913,269.853l5.335-4.819,5.335,4.819v61.276H363.913Z" transform="translate(-289.948 -265.034)" fill="#e9f3ff"/>
              <path id="Path_13879" data-name="Path 13879" d="M396.818,269.853l5.335-4.819,5.335,4.819v61.276H396.818Z" transform="translate(-304.362 -265.034)" fill="#e9f3ff"/>
              <path id="Path_13880" data-name="Path 13880" d="M429.723,269.853l5.335-4.819,5.335,4.819v61.276h-10.67Z" transform="translate(-318.775 -265.034)" fill="#e9f3ff"/>
            </g>
            <rect id="Rectangle_17556" data-name="Rectangle 17556" width="110.947" height="2.72" transform="translate(116.282 16.455) rotate(180)" fill="#e9f3ff"/>
            <rect id="Rectangle_17557" data-name="Rectangle 17557" width="110.947" height="2.72" transform="translate(116.282 48.645) rotate(180)" fill="#e9f3ff"/>
          </g>
        </g>
      </g>
    </g>
    <g id="Objects" transform="translate(31.532 96.548)">
      <g id="Group_7677" data-name="Group 7677">
        <ellipse id="Ellipse_283" data-name="Ellipse 283" cx="108.958" cy="6.363" rx="108.958" ry="6.363" transform="translate(0 155.07)" fill="#f0f6ff"/>
        <g id="Group_7676" data-name="Group 7676" transform="translate(22.165)">
          <g id="Group_7674" data-name="Group 7674" transform="translate(86.246 0)">
            <path id="Path_13881" data-name="Path 13881" d="M349.761,183.522l.3.255.352.283c.236.19.486.379.736.563.506.365,1.023.724,1.563,1.05a28.919,28.919,0,0,0,3.33,1.813,35.123,35.123,0,0,0,3.547,1.362c.611.161,1.216.364,1.839.486l.931.2.113.025a.075.075,0,0,1,.022,0c.019.008.021,0,.026.008s-.012.01-.033.02c-.047.022-.052.062.026-.012a1.513,1.513,0,0,0,.271-.421,6.551,6.551,0,0,0,.453-1.553,24.6,24.6,0,0,0,.307-3.793c.029-1.31-.006-2.642-.08-3.975-.053-1.332-.162-2.683-.273-4l1.967-.355a51.289,51.289,0,0,1,1.373,8.238,24.066,24.066,0,0,1-.016,4.351,9.894,9.894,0,0,1-.527,2.4,5.124,5.124,0,0,1-.733,1.345,3.522,3.522,0,0,1-1.6,1.176,3.452,3.452,0,0,1-1.032.2,3.491,3.491,0,0,1-.483-.012l-.232-.024-.138-.022-1.074-.174c-.719-.1-1.421-.294-2.132-.446a29.227,29.227,0,0,1-4.129-1.386,31.157,31.157,0,0,1-3.878-2c-.623-.379-1.224-.8-1.819-1.228-.3-.22-.591-.44-.881-.679-.144-.119-.289-.238-.434-.368s-.275-.242-.464-.421Z" transform="translate(-291.926 -149.345)" fill="#b55b52"/>
            <path id="Path_13882" data-name="Path 13882" d="M340.149,185.517c5.691-.773,10.29,3.829,10.29,3.829l-4.25,7.228s-6.561-2.758-7.542-5.194C337.626,188.843,337.229,185.914,340.149,185.517Z" transform="translate(-287.952 -153.701)" fill="#dd4a48"/>
            <path id="Path_13883" data-name="Path 13883" d="M374.241,174.258l-3.118-2.874,4.622-1.807a5.675,5.675,0,0,1,.28,4.947Z" transform="translate(-302.509 -146.758)" fill="#b55b52"/>
            <path id="Path_13884" data-name="Path 13884" d="M370,164.9l3.681-.7,1.571,3.022-4.621,1.807Z" transform="translate(-302.017 -144.402)" fill="#b55b52"/>
            <path id="Path_13885" data-name="Path 13885" d="M306,400.062l4.587.448,4.772-10.917-4.587-.448Z" transform="translate(-273.984 -242.937)" fill="#b55b52"/>
            <path id="Path_13886" data-name="Path 13886" d="M253.425,373.481l3.445,3.234,7.437-8.173-3.445-3.234Z" transform="translate(-250.953 -232.495)" fill="#b55b52"/>
            <path id="Path_13887" data-name="Path 13887" d="M256.534,379.056l-2.589-4.664a.376.376,0,0,0-.468-.174l-3.985,1.517a.762.762,0,0,0-.369,1.075c.931,1.611,1.461,2.341,2.6,4.392.7,1.262,2.064,4.156,3.031,5.9.946,1.7,2.742.879,2.5.067a13.774,13.774,0,0,1-.586-7.276A1.241,1.241,0,0,0,256.534,379.056Z" transform="translate(-249.026 -236.387)" fill="#2c272e"/>
            <path id="Path_13888" data-name="Path 13888" d="M309.535,406.847H303.9a.468.468,0,0,0-.445.343l-1.225,4.456a.7.7,0,0,0,.687.892c1.985.018,2.926.009,5.4.009h7.571c2.058,0,2.489-2.081,1.638-2.269-3.819-.845-6.02-2.011-7.2-3.122A1.156,1.156,0,0,0,309.535,406.847Z" transform="translate(-272.321 -250.691)" fill="#2c272e"/>
            <path id="Path_13889" data-name="Path 13889" d="M317.007,389.6l-2.459,5.627h-4.785l2.655-6.076Z" transform="translate(-275.631 -242.939)" fill="#9e4541"/>
            <path id="Path_13890" data-name="Path 13890" d="M263.665,365.31l3.446,3.236-3.835,4.211-3.446-3.236Z" transform="translate(-253.758 -232.496)" fill="#9e4541"/>
            <path id="Path_13891" data-name="Path 13891" d="M331.1,184.374s2.061.906-4.854,28.273l-19.212-1.662c1-7.791,1.425-12.612-.924-28.983a56.883,56.883,0,0,1,8.251-.369,61.306,61.306,0,0,1,8.724.755A81.162,81.162,0,0,1,331.1,184.374Z" transform="translate(-274.029 -152.026)" fill="#dd4a48"/>
            <path id="Path_13892" data-name="Path 13892" d="M318.821,181.567s-1.09-.115-2.378-.115c-.773,1.194,1.579,5.74,5.738,9.159a16.666,16.666,0,0,1,3.5-4.168Z" transform="translate(-278.493 -151.959)" fill="#fff"/>
            <path id="Path_13893" data-name="Path 13893" d="M334.861,183a8.578,8.578,0,0,1,1.646.265c.773,1.194,2.276,5.425,0,8.024a16.679,16.679,0,0,0-3.5-4.168Z" transform="translate(-285.81 -152.637)" fill="#fff"/>
            <path id="Path_13894" data-name="Path 13894" d="M333.655,195.28c.019.341-.1.625-.258.634s-.307-.261-.325-.6.1-.625.258-.634S333.636,194.939,333.655,195.28Z" transform="translate(-285.84 -157.753)" fill="#fff"/>
            <path id="Path_13895" data-name="Path 13895" d="M333.585,199.889c-.008.342-.145.615-.306.611s-.286-.284-.278-.625.145-.615.306-.611S333.592,199.548,333.585,199.889Z" transform="translate(-285.81 -159.762)" fill="#fff"/>
            <path id="Path_13896" data-name="Path 13896" d="M322.5,164.31c.307,2.854.412,8.045-1.714,9.748a32.4,32.4,0,0,0,6.863,4.876c3.34-2.308,1.861-4.121,1.861-4.121-3.066-1.018-2.784-3.334-2.05-5.467Z" transform="translate(-280.46 -144.45)" fill="#b55b52"/>
            <path id="Path_13897" data-name="Path 13897" d="M327.143,167.966l2.936,2.978a9.019,9.019,0,0,0-.4,1.525c-1.181-.276-2.89-1.5-2.909-2.767A5.035,5.035,0,0,1,327.143,167.966Z" transform="translate(-283.079 -146.052)" fill="#9e4541"/>
            <path id="Path_13898" data-name="Path 13898" d="M333.815,147.236s3.115,3.052,3.8,4.546c1.885.7,1.379-4.274-.055-7.147C335.053,146.876,333.815,147.236,333.815,147.236Z" transform="translate(-286.167 -135.832)" fill="#2c272e"/>
            <path id="Path_13899" data-name="Path 13899" d="M319.2,150.038c1.191,4.559,1.6,6.515,4.394,8.425,4.207,2.874,9.547.414,9.742-4.409.176-4.342-1.8-11.068-6.679-12.017A6.427,6.427,0,0,0,319.2,150.038Z" transform="translate(-279.668 -134.638)" fill="#b55b52"/>
            <path id="Path_13900" data-name="Path 13900" d="M325,138.56c2.088.314,4.173-1.647.793-3.743,1.083-.109,2.23-3.934-1.671-3.721-.193-1.817-4.087-3.437-6.156-.55-2.42-1.595-5.861.038-5.092,2.514-2.781.171-4.228,3.973-1.934,4.591-2.763,1.673-3.246,4.412-.537,4.9.373,3.154,6.549,1.744,6.069-1.191,1.115.6,4.653-.692,3.931-2.256C321.482,140.545,325,139.876,325,138.56Z" transform="translate(-275.124 -128.97)" fill="#2c272e"/>
            <path id="Path_13901" data-name="Path 13901" d="M314.958,151.868s2.291,3.711,2.6,5.325c1.663,1.131,2.365-3.818,1.663-6.951C316.246,151.815,314.958,151.868,314.958,151.868Z" transform="translate(-277.907 -138.288)" fill="#2c272e"/>
            <path id="Path_13902" data-name="Path 13902" d="M318.539,161.864a3.442,3.442,0,0,0,2.025,1.679c1.156.348,1.758-.68,1.457-1.784-.271-.994-1.2-2.372-2.37-2.237A1.547,1.547,0,0,0,318.539,161.864Z" transform="translate(-279.385 -142.349)" fill="#b55b52"/>
            <path id="Path_13903" data-name="Path 13903" d="M326.8,235.9s6.5,28.756,2.161,49.028c-2.906,13.578-13.388,41.006-13.388,41.006l-8.2-.211s7.934-28.784,9.575-40.1c2.806-19.363-4.222-50.936-4.222-50.936Z" transform="translate(-274.586 -175.275)" fill="#434144"/>
            <path id="Path_13904" data-name="Path 13904" d="M325.406,247.177l-4.1,6.463a197.747,197.747,0,0,1,2.344,23.148C329.415,266.471,326.687,252.639,325.406,247.177Z" transform="translate(-280.689 -180.749)" fill="#434144"/>
            <path id="Path_13905" data-name="Path 13905" d="M316.126,395.189,306,394.93l.586-3.11,11.053.524Z" transform="translate(-273.984 -244.109)" fill="#dd4a48"/>
            <path id="Path_13906" data-name="Path 13906" d="M302.4,235.244s-3.813,30.5-12.079,47.144c-6.677,13.447-24.493,32.59-24.493,32.59l-4.555-4.692s12.034-20.8,17-29.737c12.168-21.9,2.224-38.618,9.12-46.66Z" transform="translate(-254.392 -174.928)" fill="#434144"/>
            <path id="Path_13907" data-name="Path 13907" d="M265.622,372.769l-5.878-5.73,1.95-2.653,6.407,6.623Z" transform="translate(-253.721 -232.091)" fill="#dd4a48"/>
            <path id="Path_13908" data-name="Path 13908" d="M306.6,231.745l-1.015,1.645c-.079.128.067.277.289.3l20.149,1.743c.174.015.324-.057.344-.165l.322-1.7c.022-.118-.119-.232-.309-.248l-19.456-1.683A.351.351,0,0,0,306.6,231.745Z" transform="translate(-273.793 -173.937)" fill="#2c272e"/>
            <path id="Path_13909" data-name="Path 13909" d="M311.19,234.166l-.521-.045c-.1-.009-.178-.069-.165-.134l.437-2.213c.013-.065.108-.11.212-.1l.521.046c.1.009.178.069.165.134l-.438,2.214C311.39,234.13,311.294,234.175,311.19,234.166Z" transform="translate(-275.955 -173.957)" fill="#434144"/>
            <path id="Path_13910" data-name="Path 13910" d="M338.8,236.555l-.521-.045c-.1-.009-.178-.069-.166-.134l.438-2.214c.013-.065.108-.11.212-.1l.521.045c.1.009.179.069.166.134l-.438,2.213C339,236.518,338.908,236.564,338.8,236.555Z" transform="translate(-288.051 -175.004)" fill="#434144"/>
            <path id="Path_13911" data-name="Path 13911" d="M325,235.361l-.521-.045c-.1-.009-.178-.069-.165-.134l.437-2.213c.013-.065.108-.11.212-.1l.521.045c.1.009.178.069.165.134l-.438,2.214C325.2,235.324,325.1,235.37,325,235.361Z" transform="translate(-282.003 -174.481)" fill="#434144"/>
            <path id="Path_13912" data-name="Path 13912" d="M332.262,155.617c.074.375.333.641.578.593s.385-.392.311-.768-.333-.641-.579-.593S332.188,155.241,332.262,155.617Z" transform="translate(-285.478 -140.303)" fill="#2c272e"/>
            <path id="Path_13913" data-name="Path 13913" d="M339.821,154.131c.074.376.333.641.579.593s.385-.392.311-.768-.333-.642-.578-.593S339.747,153.755,339.821,154.131Z" transform="translate(-288.789 -139.652)" fill="#2c272e"/>
            <path id="Path_13914" data-name="Path 13914" d="M340.2,153.1l.851-.437S340.731,153.46,340.2,153.1Z" transform="translate(-288.965 -139.349)" fill="#2c272e"/>
            <path id="Path_13915" data-name="Path 13915" d="M338.064,156.275a10.242,10.242,0,0,0,1.811,2.135,1.649,1.649,0,0,1-1.29.515Z" transform="translate(-288.028 -140.931)" fill="#a02724"/>
            <path id="Path_13916" data-name="Path 13916" d="M334.21,163.42a3.115,3.115,0,0,1-2.141-.814.094.094,0,1,1,.134-.131,3.056,3.056,0,0,0,2.673.692.094.094,0,0,1,.036.184A3.629,3.629,0,0,1,334.21,163.42Z" transform="translate(-285.39 -143.634)" fill="#2c272e"/>
            <path id="Path_13917" data-name="Path 13917" d="M328.418,150.968a.182.182,0,0,1-.1-.027.187.187,0,0,1-.064-.257,2.19,2.19,0,0,1,1.694-1.095h.006a.187.187,0,0,1,.007.374,1.816,1.816,0,0,0-1.386.915A.188.188,0,0,1,328.418,150.968Z" transform="translate(-283.721 -138.002)" fill="#2c272e"/>
            <path id="Path_13918" data-name="Path 13918" d="M341.186,150.313a.181.181,0,0,1-.091-.024,1.834,1.834,0,0,0-1.657-.109.187.187,0,1,1-.174-.331,2.189,2.189,0,0,1,2.014.114.187.187,0,0,1-.091.35Z" transform="translate(-288.509 -138.033)" fill="#2c272e"/>
            <path id="Path_13919" data-name="Path 13919" d="M291.3,191.5a47.714,47.714,0,0,1-2.6,4.541c-.944,1.445-1.944,2.854-3.02,4.215a43.265,43.265,0,0,1-3.493,3.888c-.637.606-1.272,1.212-1.956,1.775l-.5.43a6.372,6.372,0,0,1-.756.528,4,4,0,0,1-2.143.577,3.8,3.8,0,0,1-2.117-.742,5.85,5.85,0,0,1-1.248-1.24,12.1,12.1,0,0,1-1.417-2.532,29.8,29.8,0,0,1-1.58-5.021,66.957,66.957,0,0,1-1.488-10.082l1.984-.247c.323,1.6.665,3.228,1.065,4.821.381,1.6.8,3.186,1.293,4.73a32.013,32.013,0,0,0,1.7,4.424,8.835,8.835,0,0,0,1.116,1.77,2.355,2.355,0,0,0,.547.49c.155.09.208.076.211.064a.821.821,0,0,0,.225-.114c.076-.051.165-.123.26-.2l.43-.4c.583-.523,1.13-1.1,1.677-1.665,1.079-1.162,2.077-2.408,3.054-3.677s1.871-2.612,2.726-3.976c.436-.677.851-1.367,1.259-2.061.392-.688.8-1.417,1.144-2.067Z" transform="translate(-257.77 -154.647)" fill="#b55b52"/>
            <path id="Path_13920" data-name="Path 13920" d="M270.46,185.506l-.5-4.21-4.171,2.688a7.19,7.19,0,0,0,3.256,2.853Z" transform="translate(-256.367 -151.891)" fill="#b55b52"/>
            <path id="Path_13921" data-name="Path 13921" d="M268.335,178.256l-2.725,2.573.1,1.823,4.171-2.687Z" transform="translate(-256.291 -150.559)" fill="#b55b52"/>
            <path id="Path_13922" data-name="Path 13922" d="M301.7,182.253c-2.355.416-5.656,7.172-5.656,7.172l5.938,5.37s4.722-5.151,4.47-8.22C306.234,183.97,304.7,181.723,301.7,182.253Z" transform="translate(-269.62 -152.276)" fill="#dd4a48"/>
            <path id="Path_13923" data-name="Path 13923" d="M263,385.76a.562.562,0,0,1-.183-.031c-.564-.189-.933-1.232-1.1-1.837a.093.093,0,0,1,.133-.108c.172.09,1.677.895,1.726,1.489a.364.364,0,0,1-.16.332A.683.683,0,0,1,263,385.76Zm-1.042-1.7c.261.834.6,1.386.919,1.495a.442.442,0,0,0,.423-.1.179.179,0,0,0,.087-.167C263.353,384.923,262.471,384.351,261.954,384.057Z" transform="translate(-254.581 -240.584)" fill="#407bff"/>
            <path id="Path_13924" data-name="Path 13924" d="M263.229,383.91a3.38,3.38,0,0,1-1.478-.347.094.094,0,0,1,0-.161c.051-.028,1.241-.682,1.884-.455a.57.57,0,0,1,.351.333.374.374,0,0,1-.085.461A1.083,1.083,0,0,1,263.229,383.91Zm-1.223-.427c.511.218,1.5.352,1.777.115.046-.04.092-.1.033-.249a.381.381,0,0,0-.24-.226A2.651,2.651,0,0,0,262.006,383.483Z" transform="translate(-254.581 -240.201)" fill="#407bff"/>
            <path id="Path_13925" data-name="Path 13925" d="M318.44,407.571a7.508,7.508,0,0,1-1.538-.2.093.093,0,0,1-.019-.175c.232-.11,2.277-1.051,2.79-.705a.306.306,0,0,1,.133.289.685.685,0,0,1-.278.527A1.854,1.854,0,0,1,318.44,407.571Zm-1.217-.321a3.5,3.5,0,0,0,2.192-.088.5.5,0,0,0,.2-.388.122.122,0,0,0-.051-.124C319.28,406.453,318.072,406.877,317.223,407.25Z" transform="translate(-278.726 -250.504)" fill="#407bff"/>
            <path id="Path_13926" data-name="Path 13926" d="M316.922,406.493a.094.094,0,0,1-.06-.022.093.093,0,0,1-.031-.092c.019-.086.5-2.11,1.592-1.973.278.033.354.171.369.281.07.514-1.219,1.548-1.834,1.8A.1.1,0,0,1,316.922,406.493Zm1.4-1.906c-.708,0-1.121,1.173-1.258,1.643.666-.348,1.586-1.189,1.542-1.517,0-.024-.013-.1-.206-.121A.61.61,0,0,0,318.323,404.587Z" transform="translate(-278.726 -249.619)" fill="#407bff"/>
            <path id="Path_13927" data-name="Path 13927" d="M332.645,154.587l.851-.438S333.172,154.945,332.645,154.587Z" transform="translate(-285.654 -139.999)" fill="#2c272e"/>
          </g>
          <g id="Group_7675" data-name="Group 7675">
            <path id="Path_13928" data-name="Path 13928" d="M111.277,144.7a53.53,53.53,0,0,1,37.981-15.73h7.6s35.872,9.389,35.872,47.82c0,37.561-24.836,70.819-35.866,81.85h-7.6l-37.991-37.991A53.716,53.716,0,0,1,111.277,144.7Zm37.985,62.914a24.936,24.936,0,1,0-24.939-24.934A24.938,24.938,0,0,0,149.262,207.614Z" transform="translate(-95.553 -128.97)" fill="#2c272e"/>
            <path id="Path_13929" data-name="Path 13929" d="M262.57,146.614a56.03,56.03,0,0,0-7.2-6.078l.325-.458a56.523,56.523,0,0,1,7.268,6.138Zm-10.553-8.276c-1.321-.8-2.691-1.548-4.072-2.229l.248-.5c1.4.688,2.78,1.446,4.115,2.252Z" transform="translate(-162.307 -131.876)" fill="#dd4a48"/>
            <path id="Path_13930" data-name="Path 13930" d="M124.8,144.7a53.716,53.716,0,0,1,75.965,75.965L162.787,258.64,124.8,220.649A53.717,53.717,0,0,1,124.8,144.7Zm37.986,62.914a24.936,24.936,0,1,0-24.939-24.934A24.938,24.938,0,0,0,162.781,207.614Z" transform="translate(-101.475 -128.97)" fill="#dd4a48"/>
            <path id="Path_13931" data-name="Path 13931" d="M164.445,257.244a.141.141,0,0,1-.1-.042l-36.4-36.4a51.6,51.6,0,1,1,72.985.017L164.544,257.2A.141.141,0,0,1,164.445,257.244ZM164.426,133a51.316,51.316,0,0,0-36.283,87.6l36.3,36.3L200.73,220.62l.1.1-.1-.1A51.333,51.333,0,0,0,164.426,133Zm.013,78.644a27.325,27.325,0,1,1,27.328-27.322A27.356,27.356,0,0,1,164.439,211.645Zm0-54.369a27.044,27.044,0,1,0,27.047,27.047A27.077,27.077,0,0,0,164.439,157.276Z" transform="translate(-103.132 -130.613)" fill="#9fc6ff" opacity="0.4" style="mix-blend-mode: color-dodge;isolation: isolate"/>
          </g>
        </g>
      </g>
    </g>
  </g>
</svg>
