<svg xmlns="http://www.w3.org/2000/svg" width="60.734" height="60.742" viewBox="0 0 60.734 60.742">
  <g id="pro_wh" transform="translate(-122.133 -1528.129)">
    <g id="Group_5445" data-name="Group 5445" transform="translate(122.594 1528.629)">
      <path id="Path_6361" data-name="Path 6361" d="M250.85,246.46l-6.8,13.45a20.551,20.551,0,0,1,2.113-8.859A9.165,9.165,0,0,1,250.85,246.46Z" transform="translate(-215.538 -217.702)" stroke="rgba(0,0,0,0)" stroke-width="1"/>
      <path id="Path_6362" data-name="Path 6362" d="M267.038,254.58a9.1,9.1,0,0,1-.923,6.5,20.563,20.563,0,0,1-5.875,6.943Z" transform="translate(-229.839 -224.875)" stroke="rgba(0,0,0,0)" stroke-width="1"/>
      <path id="Path_6363" data-name="Path 6363" d="M98.638,216.945h4.825V214.92a5.031,5.031,0,0,0-5.026-5.024H62.046a13.637,13.637,0,0,1-5.016-.945V230.3a7.367,7.367,0,0,0,7.359,7.359H98.438a5.031,5.031,0,0,0,5.026-5.026V229.7H98.638a3.969,3.969,0,0,1-3.965-3.965V220.91A3.969,3.969,0,0,1,98.638,216.945ZM62.62,221.006a1.051,1.051,0,0,1,.746-.309H69.84a1.055,1.055,0,0,1,0,2.111H63.366a1.055,1.055,0,0,1-.746-1.8Zm0,4.222a1.051,1.051,0,0,1,.746-.309h10.7a1.055,1.055,0,0,1,0,2.111h-10.7a1.055,1.055,0,0,1-.746-1.8Zm-.309,4.967a1.056,1.056,0,0,1,1.055-1.055h10.7a1.055,1.055,0,0,1,0,2.111h-10.7A1.055,1.055,0,0,1,62.311,230.195Zm3.4,6.162a2,2,0,1,1,2-2A2,2,0,0,1,65.707,236.357ZM88.5,221.728a21.958,21.958,0,0,1-4.433,5.933l0,0-.058.056c-.1.09-.19.179-.286.266l-.161.147a26.945,26.945,0,0,1-2.844,2.208.226.226,0,0,1-.03.02l0,0a19.56,19.56,0,0,1-1.823,1.076l-1.746,3.452a1.055,1.055,0,0,1-.942.58H69.84a1.055,1.055,0,0,1,0-2.111h5.035a1.055,1.055,0,0,0,.942-.58l1.16-2.294a23.112,23.112,0,0,1,2.106-13.521,13.479,13.479,0,0,1,1.637-2.526l0,0,.014-.018c.075-.09.149-.177.225-.263.123-.139.288-.319.488-.52a9.662,9.662,0,0,1,2.111-1.644V212l.174-.1a8.569,8.569,0,0,1,3.867-1.146l.533,0,.315.424C88.579,211.358,91.616,215.566,88.5,221.728Zm10.137-4.783h4.825V214.92a5.031,5.031,0,0,0-5.026-5.024H62.046a13.637,13.637,0,0,1-5.016-.945V230.3a7.367,7.367,0,0,0,7.359,7.359H98.438a5.031,5.031,0,0,0,5.026-5.026V229.7H98.638a3.969,3.969,0,0,1-3.965-3.965V220.91A3.969,3.969,0,0,1,98.638,216.945ZM62.62,221.006a1.051,1.051,0,0,1,.746-.309H69.84a1.055,1.055,0,0,1,0,2.111H63.366a1.055,1.055,0,0,1-.746-1.8Zm0,4.222a1.051,1.051,0,0,1,.746-.309h10.7a1.055,1.055,0,0,1,0,2.111h-10.7a1.055,1.055,0,0,1-.746-1.8Zm-.309,4.967a1.056,1.056,0,0,1,1.055-1.055h10.7a1.055,1.055,0,0,1,0,2.111h-10.7A1.055,1.055,0,0,1,62.311,230.195Zm3.4,6.162a2,2,0,1,1,2-2A2,2,0,0,1,65.707,236.357ZM88.5,221.728a21.958,21.958,0,0,1-4.433,5.933l0,0-.058.056c-.1.09-.19.179-.286.266l-.161.147a26.945,26.945,0,0,1-2.844,2.208.226.226,0,0,1-.03.02l0,0a19.56,19.56,0,0,1-1.823,1.076l-1.746,3.452a1.055,1.055,0,0,1-.942.58H69.84a1.055,1.055,0,0,1,0-2.111h5.035a1.055,1.055,0,0,0,.942-.58l1.16-2.294a23.112,23.112,0,0,1,2.106-13.521,13.479,13.479,0,0,1,1.637-2.526l0,0,.014-.018c.075-.09.149-.177.225-.263.123-.139.288-.319.488-.52a9.662,9.662,0,0,1,2.111-1.644V212l.174-.1a8.569,8.569,0,0,1,3.867-1.146l.533,0,.315.424C88.579,211.358,91.616,215.566,88.5,221.728Zm10.137-4.783h4.825V214.92a5.031,5.031,0,0,0-5.026-5.024H62.046a13.637,13.637,0,0,1-5.016-.945V230.3a7.367,7.367,0,0,0,7.359,7.359H98.438a5.031,5.031,0,0,0,5.026-5.026V229.7H98.638a3.969,3.969,0,0,1-3.965-3.965V220.91A3.969,3.969,0,0,1,98.638,216.945ZM62.62,221.006a1.051,1.051,0,0,1,.746-.309H69.84a1.055,1.055,0,0,1,0,2.111H63.366a1.055,1.055,0,0,1-.746-1.8Zm0,4.222a1.051,1.051,0,0,1,.746-.309h10.7a1.055,1.055,0,0,1,0,2.111h-10.7a1.055,1.055,0,0,1-.746-1.8Zm-.309,4.967a1.056,1.056,0,0,1,1.055-1.055h10.7a1.055,1.055,0,0,1,0,2.111h-10.7A1.055,1.055,0,0,1,62.311,230.195Zm3.4,6.162a2,2,0,1,1,2-2A2,2,0,0,1,65.707,236.357ZM88.5,221.728a21.958,21.958,0,0,1-4.433,5.933l0,0-.058.056c-.1.09-.19.179-.286.266l-.161.147a26.945,26.945,0,0,1-2.844,2.208.226.226,0,0,1-.03.02l0,0a19.56,19.56,0,0,1-1.823,1.076l-1.746,3.452a1.055,1.055,0,0,1-.942.58H69.84a1.055,1.055,0,0,1,0-2.111h5.035a1.055,1.055,0,0,0,.942-.58l1.16-2.294a23.112,23.112,0,0,1,2.106-13.521,13.479,13.479,0,0,1,1.637-2.526l0,0,.014-.018c.075-.09.149-.177.225-.263.123-.139.288-.319.488-.52a9.662,9.662,0,0,1,2.111-1.644V212l.174-.1a8.569,8.569,0,0,1,3.867-1.146l.533,0,.315.424C88.579,211.358,91.616,215.566,88.5,221.728Z" transform="translate(-50.34 -184.569)" stroke="rgba(0,0,0,0)" stroke-width="1"/>
      <path id="Path_6364" data-name="Path 6364" d="M118.852,80.06h-36.4a2.334,2.334,0,0,0,0,4.667h36.4a2.334,2.334,0,0,0,0-4.667Z" transform="translate(-70.745 -70.718)" stroke="rgba(0,0,0,0)" stroke-width="1"/>
      <path id="Path_6365" data-name="Path 6365" d="M57.44,16.459a2.334,2.334,0,0,0,2.333-2.334v-2.45A11.689,11.689,0,0,0,48.1,0S11.522.006,11.432.016A11.907,11.907,0,0,0,3.264,3.679a11.5,11.5,0,0,0-3.217,8.4c0,.06-.007,33.654-.007,33.654A14.025,14.025,0,0,0,14.049,59.742H48.1A11.688,11.688,0,0,0,59.773,48.067V30.351A11.688,11.688,0,0,0,48.1,18.675H11.706a6.986,6.986,0,0,1-6.992-6.666A6.876,6.876,0,0,1,6.64,6.9a7.219,7.219,0,0,1,5.2-2.225L48.1,4.666a7.018,7.018,0,0,1,7.009,7.009v2.45A2.334,2.334,0,0,0,57.44,16.459ZM11.706,23.343H48.1a7.017,7.017,0,0,1,7.009,7.008V34.36H48.3a1.981,1.981,0,0,0-1.981,1.981v4.827A1.981,1.981,0,0,0,48.3,43.15h6.809v4.917A7.018,7.018,0,0,1,48.1,55.076H14.049a9.354,9.354,0,0,1-9.343-9.343V21.018A11.637,11.637,0,0,0,11.706,23.343ZM50.827,38.754a1.108,1.108,0,1,1-1.107-1.107A1.108,1.108,0,0,1,50.827,38.754Z" stroke="rgba(0,0,0,0)" stroke-width="1"/>
    </g>
  </g>
</svg>
